<mxfile host="Electron" modified="2024-06-20T12:55:13.681Z" agent="Mozilla/5.0 (Windows NT 10.0; Win64; x64) AppleWebKit/537.36 (KHTML, like Gecko) draw.io/24.5.3 Chrome/124.0.6367.207 Electron/30.0.6 Safari/537.36" etag="uu_fcZRUcouWHrcpGqjf" version="24.5.3" type="device">
  <diagram name="Page-1" id="2YBvvXClWsGukQMizWep">
    <mxGraphModel dx="1036" dy="606" grid="1" gridSize="10" guides="1" tooltips="1" connect="1" arrows="1" fold="1" page="1" pageScale="1" pageWidth="850" pageHeight="1100" math="0" shadow="0">
      <root>
        <mxCell id="0" />
        <mxCell id="1" parent="0" />
        <mxCell id="p8aKJunwNVi0zlDJC0Dp-1" value="" style="shape=umlLifeline;perimeter=lifelinePerimeter;whiteSpace=wrap;html=1;container=1;dropTarget=0;collapsible=0;recursiveResize=0;outlineConnect=0;portConstraint=eastwest;newEdgeStyle={&quot;curved&quot;:0,&quot;rounded&quot;:0};participant=umlActor;" parent="1" vertex="1">
          <mxGeometry x="213" y="110" width="20" height="300" as="geometry" />
        </mxCell>
        <mxCell id="RM_4QevZBC6bVJb3u_Mf-1" value="" style="html=1;points=[[0,0,0,0,5],[0,1,0,0,-5],[1,0,0,0,5],[1,1,0,0,-5]];perimeter=orthogonalPerimeter;outlineConnect=0;targetShapes=umlLifeline;portConstraint=eastwest;newEdgeStyle={&quot;curved&quot;:0,&quot;rounded&quot;:0};" vertex="1" parent="p8aKJunwNVi0zlDJC0Dp-1">
          <mxGeometry x="5" y="70" width="10" height="160" as="geometry" />
        </mxCell>
        <mxCell id="p8aKJunwNVi0zlDJC0Dp-2" value="Generate reports" style="shape=umlLifeline;perimeter=lifelinePerimeter;whiteSpace=wrap;html=1;container=1;dropTarget=0;collapsible=0;recursiveResize=0;outlineConnect=0;portConstraint=eastwest;newEdgeStyle={&quot;curved&quot;:0,&quot;rounded&quot;:0};" parent="1" vertex="1">
          <mxGeometry x="383" y="110" width="100" height="300" as="geometry" />
        </mxCell>
        <mxCell id="RM_4QevZBC6bVJb3u_Mf-4" value="" style="html=1;points=[[0,0,0,0,5],[0,1,0,0,-5],[1,0,0,0,5],[1,1,0,0,-5]];perimeter=orthogonalPerimeter;outlineConnect=0;targetShapes=umlLifeline;portConstraint=eastwest;newEdgeStyle={&quot;curved&quot;:0,&quot;rounded&quot;:0};" vertex="1" parent="p8aKJunwNVi0zlDJC0Dp-2">
          <mxGeometry x="45" y="70" width="10" height="150" as="geometry" />
        </mxCell>
        <mxCell id="p8aKJunwNVi0zlDJC0Dp-3" value="Inventory DB" style="shape=umlLifeline;perimeter=lifelinePerimeter;whiteSpace=wrap;html=1;container=1;dropTarget=0;collapsible=0;recursiveResize=0;outlineConnect=0;portConstraint=eastwest;newEdgeStyle={&quot;curved&quot;:0,&quot;rounded&quot;:0};" parent="1" vertex="1">
          <mxGeometry x="583" y="110" width="100" height="300" as="geometry" />
        </mxCell>
        <mxCell id="RM_4QevZBC6bVJb3u_Mf-5" value="" style="html=1;points=[[0,0,0,0,5],[0,1,0,0,-5],[1,0,0,0,5],[1,1,0,0,-5]];perimeter=orthogonalPerimeter;outlineConnect=0;targetShapes=umlLifeline;portConstraint=eastwest;newEdgeStyle={&quot;curved&quot;:0,&quot;rounded&quot;:0};" vertex="1" parent="p8aKJunwNVi0zlDJC0Dp-3">
          <mxGeometry x="45" y="80" width="10" height="120" as="geometry" />
        </mxCell>
        <mxCell id="p8aKJunwNVi0zlDJC0Dp-4" value="Report(Pname,Date)" style="html=1;verticalAlign=bottom;endArrow=block;curved=0;rounded=0;" parent="1" target="p8aKJunwNVi0zlDJC0Dp-2" edge="1">
          <mxGeometry width="80" relative="1" as="geometry">
            <mxPoint x="223" y="200" as="sourcePoint" />
            <mxPoint x="303" y="200" as="targetPoint" />
          </mxGeometry>
        </mxCell>
        <mxCell id="p8aKJunwNVi0zlDJC0Dp-5" value="Report order(Pid,Pname,Date)" style="html=1;verticalAlign=bottom;endArrow=block;curved=0;rounded=0;" parent="1" target="p8aKJunwNVi0zlDJC0Dp-3" edge="1">
          <mxGeometry width="80" relative="1" as="geometry">
            <mxPoint x="433" y="210" as="sourcePoint" />
            <mxPoint x="513" y="210" as="targetPoint" />
          </mxGeometry>
        </mxCell>
        <mxCell id="p8aKJunwNVi0zlDJC0Dp-6" value="report" style="html=1;verticalAlign=bottom;endArrow=open;dashed=1;endSize=8;curved=0;rounded=0;" parent="1" edge="1">
          <mxGeometry relative="1" as="geometry">
            <mxPoint x="633" y="280" as="sourcePoint" />
            <mxPoint x="432.5" y="280" as="targetPoint" />
          </mxGeometry>
        </mxCell>
        <mxCell id="p8aKJunwNVi0zlDJC0Dp-7" value="report created" style="html=1;verticalAlign=bottom;endArrow=open;dashed=1;endSize=8;curved=0;rounded=0;" parent="1" target="p8aKJunwNVi0zlDJC0Dp-1" edge="1">
          <mxGeometry relative="1" as="geometry">
            <mxPoint x="433" y="310" as="sourcePoint" />
            <mxPoint x="353" y="310" as="targetPoint" />
          </mxGeometry>
        </mxCell>
        <mxCell id="p8aKJunwNVi0zlDJC0Dp-8" value="Business Analyst" style="text;html=1;align=center;verticalAlign=middle;resizable=0;points=[];autosize=1;strokeColor=none;fillColor=none;" parent="1" vertex="1">
          <mxGeometry x="168" y="80" width="110" height="30" as="geometry" />
        </mxCell>
      </root>
    </mxGraphModel>
  </diagram>
</mxfile>
